# xmcd
#
# Track frame offsets:
#	151
#	19815
#	33600
#	52961
#	62674
#	84276
#	103272
#	127706
#	146311
#	166510
#
# Disc length: 2444 seconds
#
# Revision: 0
# Processed by: cddbd v1.5.2PL0 Copyright (c) Steve Scherf et al.
# Submitted via: audiograbber 1.83.01
#
DISCID=72098a0a
DTITLE=Mariette Croteau - Si Dans Le Ciel
DYEAR=1900
DGENRE=Country
TTITLE0=Fais-Toi Confiance(Mariette Croteau-Mariette Croteau)
TTITLE1=J'veux Rien Savoir De Tes Problèmes(Mariette Croteau-Mariette Croteau)
TTITLE2=Chanter L'amour Danser Toujours(Mariette Croteau-Mariette Croteau)
TTITLE3=Je Chante(Mariette Croteau-Mariette Croteau)
TTITLE4=Si Dans Le Ciel(Mariette Croteau-Mariette Croteau)
TTITLE5=10-4 Pee-Wee(Mariette Croteau-Mariette Croteau)
TTITLE6=Musique(Mariette Croteau-Mariette Croteau)
TTITLE7=Sur Ma Route(Mariette Croteau-Mariette Croteau)
TTITLE8=Vers Un Nouveau Bonheur(Mariette Croteau-Mariette Croteau)
TTITLE9=Les Voix En Echo(Mariette Croteau-Mariette Croteau)
EXTD=
EXTT0=
EXTT1=
EXTT2=
EXTT3=
EXTT4=
EXTT5=
EXTT6=
EXTT7=
EXTT8=
EXTT9=
PLAYORDER=
